<?xml version="1.0" standalone="no"?><!DOCTYPE svg PUBLIC "-//W3C//DTD SVG 1.1//EN" "http://www.w3.org/Graphics/SVG/1.1/DTD/svg11.dtd"><svg t="1583408803260" class="icon" viewBox="0 0 1024 1024" version="1.1" xmlns="http://www.w3.org/2000/svg" p-id="3384" xmlns:xlink="http://www.w3.org/1999/xlink" width="300" height="300"><defs><style type="text/css"></style></defs><path d="M976.4 938.8c0 22.6-18.3 41-41 41h-446c-22.6 0-41-18.3-41-41 0-22.6 18.3-41 41-41h446c22.6 0 41 18.3 41 41z" fill="#dbdbdb" p-id="3385"></path><path d="M965.2 968.5c-16.1 16.1-42 16.1-58 0.1L745 806.3c-16-16-16-41.9 0-57.9l0.1-0.1c16-16 41.9-16 57.9 0l162.2 162.2c16 16 16 42 0 58z" fill="#dbdbdb" p-id="3386"></path><path d="M886.309772 621.110968a40.9 40.9 0 1 0 75.784669-30.788372 40.9 40.9 0 1 0-75.784669 30.788372Z" fill="#dbdbdb" p-id="3387"></path><path d="M941.9 333.5C844.3 93.4 570.5-22.2 330.3 75.3 90.2 172.9-25.4 446.7 72.1 686.9c74 182.2 249.6 292.8 434.9 292.8v-82.2c-152.8-0.1-297.6-91.2-358.7-241.5-80.5-198.1 14.9-423.9 213-504.4s423.9 14.9 504.4 213c30.8 75.9 35.9 155.8 19.2 230.1l72.3 25.9c0.1-1.7 1-3.1 2.4-3.7 1.4-0.6 2.9-1.4 4.1-0.4 21.7-91.5 16.3-189.2-21.8-283z" fill="#dbdbdb" p-id="3388"></path><path d="M673.2 479.7c0 22.6-18.3 41-41 41H365.6c-22.6 0-41-18.3-41-41 0-22.6 18.3-41 41-41h266.7c22.6 0 40.9 18.3 40.9 41z" fill="#dbdbdb" p-id="3389"></path><path d="M525.5 463.7c-16 16-41.9 16-57.9 0L336.1 332.3c-16-16-16-41.9 0-57.9s41.9-16 57.9 0l131.4 131.4c16 16 16 41.9 0.1 57.9z" fill="#dbdbdb" p-id="3390"></path><path d="M474.5 463.7c-16-16-16-41.9 0-57.9l131.4-131.4c16-16 41.9-16 57.9 0s16 41.9 0 57.9L532.4 463.7c-16 16-41.9 16-57.9 0zM673.2 619c0 22.6-18.3 41-41 41H365.5c-22.6 0-41-18.3-41-41 0-22.6 18.3-41 41-41h266.7c22.7 0 41 18.4 41 41z" fill="#dbdbdb" p-id="3391"></path><path d="M498.9 760.3c-22.6 0-41-18.3-41-41V452.6c0-22.6 18.3-41 41-41 22.6 0 41 18.3 41 41v266.7c0 22.6-18.4 41-41 41z" fill="#dbdbdb" p-id="3392"></path></svg>