<?xml version="1.0" standalone="no"?><!DOCTYPE svg PUBLIC "-//W3C//DTD SVG 1.1//EN" "http://www.w3.org/Graphics/SVG/1.1/DTD/svg11.dtd"><svg t="1583408183399" class="icon" viewBox="0 0 1024 1024" version="1.1" xmlns="http://www.w3.org/2000/svg" p-id="2495" xmlns:xlink="http://www.w3.org/1999/xlink" width="300" height="300"><defs><style type="text/css"></style></defs><path d="M253.28 925.63c-42.854 0-85.592-17.055-117.063-50.787-60.192-64.52-56.672-165.98 7.847-226.174L467.61 346.821a160.568 160.568 0 0 1 15.419-12.685c14.324-10.353 34.328-7.133 44.68 7.19 10.353 14.323 7.133 34.327-7.19 44.68a96.214 96.214 0 0 0-9.244 7.606l-1.549 1.446-322.003 300.408c-38.715 36.119-40.828 97.002-4.708 135.718 36.119 38.716 97.002 40.829 135.718 4.709l323.552-301.854c12.923-12.057 33.171-11.354 45.228 1.569 12.056 12.923 11.354 33.172-1.569 45.228L362.391 882.689c-30.787 28.722-69.999 42.941-109.111 42.941z" fill="#dbdbdb" p-id="2496"></path><path d="M678.571 586.088c-17.43 0-31.699-13.983-31.985-31.477-0.289-17.671 13.802-32.23 31.473-32.52 51.582-0.844 97.478-15.047 125.918-38.968 32.217-27.098 52.661-72.296 54.063-118.942l-25.426 20.658c-23.666 19.229-53.486 28.083-83.972 24.926-30.484-3.153-57.862-17.923-77.09-41.589-19.228-23.665-28.08-53.486-24.927-83.972 3.154-30.484 17.924-57.862 41.589-77.09l11.792-9.581a164.937 164.937 0 0 0-3.448-0.036c-48.679 0-84.734 11.477-110.228 35.085C555.148 261.461 535 311.105 535 359.057c0 17.673-14.327 32-32 32-17.673 0-32-14.327-32-32 0-65.936 27.529-132.39 71.845-173.43 37.351-34.589 89.067-52.128 153.714-52.128 30.384 0 59.883 5.95 87.676 17.684l52.652 22.23-46.471 33.27a51.816 51.816 0 0 0-2.481 1.873l-59.362 48.231c-10.397 8.448-16.892 20.524-18.286 34.004s2.49 26.63 10.938 37.028 20.525 16.892 34.005 18.287c13.481 1.396 26.63-2.49 37.028-10.938l59.37-48.237a50.51 50.51 0 0 0 6.008-5.797l37.839-42.96 16.771 54.737c6.552 21.381 9.873 43.637 9.873 66.147 0 31.951-6.738 64.52-19.485 94.183-13.443 31.282-33.313 58.552-57.46 78.862-54.083 45.488-127.26 53.346-166.066 53.981-0.18 0.003-0.359 0.004-0.537 0.004z" fill="#dbdbdb" p-id="2497"></path><path d="M745.678 924.643c-29.746 0-59.362-12.212-80.622-36.15L505.13 708.416c-11.736-13.214-10.537-33.439 2.677-45.176 13.214-11.736 33.44-10.537 45.176 2.678l159.926 180.076c7.703 8.674 18.402 13.834 30.126 14.528 11.719 0.704 22.957-3.164 31.632-10.869 8.674-7.703 13.834-18.402 14.528-30.126 0.695-11.724-3.165-22.957-10.869-31.632L613.229 601.996c-11.735-13.214-10.536-33.439 2.678-45.176 13.214-11.735 33.44-10.536 45.176 2.678L826.18 745.397c39.451 44.422 35.407 112.657-9.015 152.109-20.483 18.192-46.033 27.136-71.487 27.137zM210.141 302.912l45.888-44.608 174.96 179.98-45.888 44.608z" fill="#dbdbdb" p-id="2498"></path><path d="M209.588 334.652c-3.467 0-6.955-0.195-10.453-0.589-24.266-2.734-45.976-14.707-61.131-33.711l-27.982-35.088c-2.704-3.39-5.586-6.287-8.637-9.354-8.335-8.377-20.932-21.037-20.327-41.28 0.638-21.318 15.723-38.928 41.59-62.038 19.36-18.66 45.229-39.612 74.454-37.719 27.842 1.797 44.547 22.745 55.602 36.607l27.981 35.089c31.37 39.336 24.889 96.861-14.449 128.232-16.265 12.97-36.066 19.851-56.648 19.851zM150.41 214.479c2.951 3.044 6.244 6.612 9.648 10.881l27.982 35.089c9.368 11.746 26.546 13.683 38.292 4.314 5.639-4.497 9.197-10.982 10.017-18.26 0.82-7.278-1.205-14.392-5.702-20.031l-27.982-35.089c-2.145-2.689-7.281-9.13-10.523-12.042-3.262 1.401-11.143 5.852-25.474 19.711l-0.952 0.884c-7.161 6.383-12.019 11.107-15.306 14.543z" fill="#dbdbdb" p-id="2499"></path><path d="M258.602 766.578m-40.498 0a40.498 40.498 0 1 0 80.996 0 40.498 40.498 0 1 0-80.996 0Z" fill="#dbdbdb" p-id="2500"></path></svg>