<?xml version="1.0" standalone="no"?><!DOCTYPE svg PUBLIC "-//W3C//DTD SVG 1.1//EN" "http://www.w3.org/Graphics/SVG/1.1/DTD/svg11.dtd"><svg t="1651748263208" class="icon" viewBox="0 0 1024 1024" version="1.1" xmlns="http://www.w3.org/2000/svg" p-id="2262" xmlns:xlink="http://www.w3.org/1999/xlink" width="600" height="600"><defs><style type="text/css">@font-face { font-family: feedback-iconfont; src: url("//at.alicdn.com/t/font_1031158_u69w8yhxdu.woff2?t=1630033759944") format("woff2"), url("//at.alicdn.com/t/font_1031158_u69w8yhxdu.woff?t=1630033759944") format("woff"), url("//at.alicdn.com/t/font_1031158_u69w8yhxdu.ttf?t=1630033759944") format("truetype"); }
</style></defs><path d="M726.5 349.2h-419V241.9c0-25.8 21-46.9 46.9-46.9h325.3c25.8 0 46.9 21 46.9 46.9v107.3z m-395.6-23.4h372.2v-83.9c0-12.9-10.5-23.4-23.4-23.4H354.4c-12.9 0-23.4 10.5-23.4 23.4v83.9zM724.9 892.4H312.5c-34.2 0-62-28.2-62-62.9l2.5-331c0.1-16 6.1-31.3 16.9-43.1l60.8-66.3c10.1-11 34-14.7 43.3-14.7h294.3c20.2 0 39.3 8.9 52.4 24.5l52.8 62.6c8.6 10.2 13.3 23.2 13.3 36.6v331.3c0.1 34.8-27.7 63-61.9 63zM374.1 397.9c-9.3 0-23.4 4.2-26.1 7.1l-60.8 66.3c-6.8 7.5-10.7 17.2-10.7 27.4L274 829.6c0 21.7 17.3 39.4 38.6 39.4H725c21.3 0 38.6-17.7 38.6-39.4V498.1c0-7.9-2.8-15.5-7.8-21.5L702.9 414c-8.7-10.3-21.2-16.2-34.5-16.2H374.1z" fill="#4586FC" p-id="2263"></path><path d="M532.1 746.7h-31.8c-16.7 0-30.4-13.6-30.4-30.4v-66h-66c-16.7 0-30.4-13.6-30.4-30.4v-31.8c0-16.7 13.6-30.4 30.4-30.4h66v-66c0-16.7 13.6-30.4 30.4-30.4h31.8c16.7 0 30.4 13.6 30.4 30.4v66h66c16.7 0 30.4 13.6 30.4 30.4V620c0 16.7-13.6 30.4-30.4 30.4h-66v66c0 16.7-13.6 30.3-30.4 30.3zM403.9 578.3c-5.4 0-9.9 4.4-9.9 9.9V620c0 5.4 4.4 9.9 9.9 9.9h86.5v86.5c0 5.4 4.4 9.9 9.9 9.9h31.8c5.4 0 9.9-4.4 9.9-9.9v-86.5h86.5c5.4 0 9.9-4.4 9.9-9.9v-31.8c0-5.4-4.4-9.9-9.9-9.9H542v-86.5c0-5.4-4.4-9.9-9.9-9.9h-31.8c-5.4 0-9.9 4.4-9.9 9.9v86.5h-86.5z" fill="#FE5862" p-id="2264"></path><path d="M639.4 339.4c-5.7 0-10.2-4.6-10.2-10.2v-65.4c0-5.7 4.6-10.2 10.2-10.2s10.2 4.6 10.2 10.2v65.4c0.1 5.6-4.5 10.2-10.2 10.2zM484.6 339.4c-5.7 0-10.2-4.6-10.2-10.2v-57c0-5.7 4.6-10.2 10.2-10.2s10.2 4.6 10.2 10.2v57c0.1 5.6-4.5 10.2-10.2 10.2zM399.1 339.4c-5.7 0-10.2-4.6-10.2-10.2v-65.4c0-5.7 4.6-10.2 10.2-10.2s10.2 4.6 10.2 10.2v65.4c0.1 5.6-4.5 10.2-10.2 10.2z" fill="#4586FC" p-id="2265"></path></svg>